<?xml version="1.0" encoding="utf-8" ?>
<svg xmlns="http://www.w3.org/2000/svg" xmlns:xlink="http://www.w3.org/1999/xlink" width="1024" height="1024">
	<path d="M511.844 22.3332C517.677 28.0563 522.238 35.797 527.77 41.9531C534.465 49.403 543.339 55.3236 548.952 63.6756C555.151 72.8983 556.379 84.0586 554.149 94.8C551.967 105.311 545.956 114.639 536.989 120.55L537.304 291.708C544.496 291.546 554.166 290.288 560.882 293.122C564.074 294.469 566.823 296.798 568.028 300.121Q568.204 300.593 568.331 301.081Q568.457 301.569 568.533 302.067Q568.608 302.565 568.632 303.069Q568.656 303.572 568.629 304.075Q568.601 304.578 568.521 305.076Q568.442 305.574 568.312 306.061Q568.181 306.547 568.002 307.018Q567.822 307.489 567.595 307.939C565.811 311.47 562.953 312.737 559.371 313.965L559.335 321.884C572.926 325.051 589.296 326.666 602.717 321.87C609.741 319.36 616.678 314.993 619.832 307.956C623.154 300.546 621.527 293.186 618.847 285.968C644.598 270.951 676.395 269.887 705.094 274.567C713.156 275.882 739.828 280.963 743.718 286.36C743.622 287.816 743.451 288.341 742.119 289.201C738.586 291.481 733.535 292.409 729.633 294.284C718.525 299.623 707.477 305.83 697.324 312.825C676.815 326.955 659.58 344.83 648.973 367.598C647.598 370.549 646.213 373.603 645.146 376.675C644.007 379.952 643.763 383.478 642.011 386.521C640.876 387.294 639.599 387.274 638.271 387.328C631.91 387.584 625.393 387.094 619.014 387.059L580.96 387.219C591.466 395.69 601.662 404.502 612.299 412.825C619.743 418.65 627.739 423.979 634.934 430.065C628.333 439.143 619.14 447.412 611.252 455.443L580.393 487.468C580.779 514.726 580.464 542.039 580.463 569.302L580.44 728.039L580.489 801.373C580.5 818.881 581.575 837.003 578.56 854.293C571.378 895.49 549.211 944.205 527.698 979.961C522.827 988.057 517.722 996.872 511.553 1004.03C482.36 959.102 456.41 909.736 445.831 856.76C442.867 841.921 444.256 824.841 444.235 809.644L444.338 732.298L444.28 492.093C440.676 488.26 437.564 483.855 434.192 479.808L412.528 454.138C405.8 446.055 398.329 438.548 392.098 430.069L392.549 430.107L391.366 428.908C394.779 424.208 401.57 420.444 406.15 416.867C412.431 411.962 418.528 406.801 424.757 401.825C430.845 396.962 437.099 392.28 442.848 387.011C423.036 387.022 403.214 388.118 383.418 388.047C380.25 379.747 377.893 371.611 373.842 363.602C357.657 331.598 328.659 308.072 295.985 294.287C292.87 292.973 282.355 289.559 280.644 287.108L281.185 285.957C288.13 280.174 305.593 276.095 314.501 274.377C339.95 269.468 367.823 271.16 392.396 279.482C397.21 281.112 402.515 282.939 406.754 285.789C404.131 291.281 402.423 296.669 403.375 302.866C404.371 309.342 408.395 314.618 413.678 318.305C427.862 328.203 449.794 324.995 465.659 322.045C465.82 319.426 465.782 316.78 465.814 314.156C463.537 313.269 460.907 312.295 459.111 310.607C457.072 308.691 456.437 306.259 456.475 303.528C456.518 300.457 457.438 297.452 459.688 295.281C465.719 289.462 478.759 291.328 486.461 291.468L486.047 120.702C475.847 110.824 468.978 99.8097 468.498 85.2984C467.75 62.65 482.917 56.702 496.136 42.273C501.869 36.0149 506.065 28.4943 511.844 22.3332Z"/>
	<path d="M509.461 806.117C511.122 805.985 512.869 805.848 514.508 806.236C517.285 806.894 519.861 808.872 521.195 811.395Q521.438 811.85 521.63 812.328Q521.823 812.806 521.964 813.302Q522.104 813.798 522.191 814.306Q522.278 814.814 522.31 815.329Q522.343 815.843 522.32 816.358Q522.297 816.873 522.219 817.383Q522.141 817.893 522.01 818.391Q521.878 818.89 521.694 819.371C520.407 822.721 517.762 824.6 514.602 826.005C512.871 826.324 511.118 826.305 509.419 825.818C506.723 825.043 504.448 823.428 503.128 820.918C501.859 818.506 501.678 815.733 502.524 813.15C503.724 809.478 506.149 807.787 509.461 806.117Z"/>
	<path d="M510.697 49.8689C511.926 49.9654 512.755 49.988 513.744 50.7799C516.215 52.7591 518.389 55.1486 520.855 57.1587C529.593 64.2832 538.773 70.3316 540.137 82.6103C540.952 89.9557 538.258 97.4608 533.588 103.102C528.174 109.643 521.027 113.009 512.657 113.861C505.24 113.754 498.545 111.148 493.065 106.168Q492.529 105.682 492.017 105.169Q491.506 104.657 491.021 104.119Q490.536 103.582 490.078 103.021Q489.62 102.46 489.191 101.876Q488.762 101.293 488.363 100.689Q487.964 100.085 487.595 99.4624Q487.226 98.8393 486.889 98.1985Q486.552 97.5578 486.248 96.901Q485.943 96.2442 485.672 95.573Q485.4 94.9018 485.163 94.2178Q484.925 93.5339 484.722 92.839Q484.519 92.144 484.351 91.4398Q484.183 90.7356 484.05 90.0238Q483.918 89.3121 483.821 88.5946Q483.724 87.8771 483.663 87.1557Q483.602 86.4343 483.577 85.7107C482.988 68.5857 500.176 61.6555 510.037 50.6173L510.697 49.8689Z"/>
	<path d="M511.779 67.4275Q513.699 68.2527 515.488 69.332C520.697 72.4613 526.656 77.2532 528.012 83.4647Q528.16 84.1548 528.237 84.8564Q528.314 85.5579 528.319 86.2637Q528.324 86.9694 528.258 87.6721Q528.191 88.3747 528.053 89.0668Q527.915 89.759 527.708 90.4336Q527.5 91.1082 527.225 91.7581Q526.95 92.408 526.61 93.0265Q526.27 93.6451 525.869 94.2258C522.917 98.4157 517.65 101.002 512.699 101.792C511.441 101.715 510.17 101.615 508.947 101.289C504.508 100.108 499.878 96.8602 497.684 92.7741C495.893 89.4388 495.338 85.4342 496.522 81.8063C498.673 75.2135 505.914 70.4714 511.779 67.4275Z"/>
	<path d="M508.801 330.649Q510.059 330.519 511.324 330.496Q512.589 330.474 513.852 330.56Q515.114 330.645 516.364 330.838Q517.614 331.031 518.844 331.331Q520.073 331.63 521.272 332.033Q522.472 332.435 523.632 332.939Q524.793 333.443 525.906 334.044Q527.019 334.645 528.077 335.339C534.824 339.823 539.089 346.986 540.578 354.859C542.064 362.724 540.334 370.497 535.802 377.042C530.472 384.738 523.135 388.369 514.116 389.949C506.94 390.519 500.18 388.785 494.298 384.603Q493.696 384.179 493.116 383.726Q492.537 383.273 491.98 382.791Q491.423 382.31 490.891 381.801Q490.359 381.292 489.853 380.758Q489.348 380.223 488.869 379.664Q488.39 379.105 487.94 378.523Q487.489 377.941 487.068 377.337Q486.648 376.733 486.257 376.109Q485.867 375.485 485.508 374.843Q485.15 374.2 484.823 373.54Q484.497 372.88 484.204 372.205Q483.911 371.53 483.652 370.841Q483.393 370.152 483.168 369.451Q482.944 368.751 482.755 368.039Q482.565 367.328 482.411 366.608Q482.258 365.889 482.14 365.162Q482.015 364.44 481.926 363.713Q481.837 362.985 481.785 362.254Q481.733 361.523 481.717 360.791Q481.702 360.058 481.724 359.326Q481.745 358.593 481.803 357.863Q481.862 357.132 481.957 356.405Q482.052 355.679 482.183 354.958Q482.314 354.237 482.482 353.524Q482.649 352.81 482.852 352.106Q483.055 351.402 483.294 350.709Q483.532 350.016 483.805 349.336Q484.077 348.656 484.384 347.99Q484.69 347.324 485.03 346.675Q485.37 346.026 485.742 345.394Q486.113 344.763 486.516 344.151Q486.92 343.539 487.353 342.948C492.728 335.58 499.945 332.024 508.801 330.649Z"/>
</svg>
